# xmcd CD database file
#
# Track frame offsets:
#	150
#	15268
#	30845
#	46153
#	61318
#	75993
#	89353
#	101326
#	115173
#	128745
#	142173
#	157485
#	170980
#	183015
#	195015
#	208605
#	222240
#	235023
#	248058
#	263508
#	277113
#	289623
#	302823
#	315310
#	328398
#	341370
#
# Disc length: 4737 seconds
#
# Revision: 0
# Processed by: cddbd v1.5.1PL0 Copyright (c) Steve Scherf et al.
# Submitted via: CDex 1.51
#
DISCID=61127f1a
DTITLE=Various Artist - Martin Scorsese presents 'The Blues' - Highlights - disc 1
DYEAR=1900
DGENRE=Blues
TTITLE0=109 - Blind Willie Johnson-Dark Was The Night, Cold Was The Ground
TTITLE1=110 - Louis Armstrong-Savoy Blues
TTITLE2=112 - Mississippi John Hurt-Frankie
TTITLE3=118 - Pine Top Smith-Pine Top's Boogie Woogie
TTITLE4=119 - Lonnie Johnson-Guitar Blues
TTITLE5=121 - Blind Blake-Diddie Wah Diddie
TTITLE6=123 - Jimmie Rodgers-Standin' On The Corner (Blue Yodel #9)
TTITLE7=124 - Mississippi Sheiks-Sittin' On Top Of The World
TTITLE8=201 - Skip James-Devil Got My Woman
TTITLE9=202 - Lead Belly-C.C. Rider
TTITLE10=203 - Big Joe Williams-Baby Please Don't Go
TTITLE11=204 - Roosevelt Sykes-Dirty Mother For You (Don't You Know)
TTITLE12=205 - Billie Holiday-Billie's Blues
TTITLE13=206 - Robert Johnson-Cross Road Blues
TTITLE14=207 - Sonny Boy Williamson I-Good Mornin' Little School Girl
TTITLE15=208 - Bukka White-Shake 'em On Down
TTITLE16=209 - Joe Turner and Pete Johnson-Roll 'em Pete
TTITLE17=210 - Robert Petway-Catfish Blues
TTITLE18=211 - Count Basie Orchestra With Jimmy Rushing-Going To Chicago Blues
TTITLE19=212 - Big Bill Broonzy-Key To The Highway
TTITLE20=213 - Memphis Minnie-Me And My Chauffeur Blues
TTITLE21=214 - Big Maceo Merriweather-Worried Life Blues
TTITLE22=215 - Tommy Mcclennon-Cross Cut Saw Blues
TTITLE23=216 - Lionel Hampton Sextet With Dinah Washington-Evil Gal Blues
TTITLE24=217 - Sister Rosetta Tharpe-Strange Things Happening Everyday
TTITLE25=218 - Joe Liggins-Honeydripper Part 1
EXTD=
EXTT0=
EXTT1=
EXTT2=
EXTT3=
EXTT4=
EXTT5=
EXTT6=
EXTT7=
EXTT8=
EXTT9=
EXTT10=
EXTT11=
EXTT12=
EXTT13=
EXTT14=
EXTT15=
EXTT16=
EXTT17=
EXTT18=
EXTT19=
EXTT20=
EXTT21=
EXTT22=
EXTT23=
EXTT24=
EXTT25=
PLAYORDER=
